<svg id="Layer_1" data-name="Layer 1" xmlns="http://www.w3.org/2000/svg" xmlns:xlink="http://www.w3.org/1999/xlink" viewBox="0 0 413.51 182.26"><defs><linearGradient id="linear-gradient" x1="48.84" y1="41.36" x2="173.52" y2="166.04" gradientUnits="userSpaceOnUse"><stop offset="0" stop-color="#015249"/><stop offset="1" stop-color="#57bc90"/></linearGradient></defs><path d="M162.64,115.69c0,6.79,3.48,7.5,6.2,6.66a5.63,5.63,0,0,1-3.62,1.55c-3.55,0-6.26-3.23-6.26-10.53,0-7.82,3.81-18.15,8.59-26.29-7.11,8.2-15,18.86-18.86,30.55-.59,1.36-1.88,2.26-3.1,1.87,1.87-8,3.94-18.66,3.55-27.9-4.14,20.86-18.35,36.11-32.94,36.11-9.18,0-14.28-5.1-14.28-12.21,0-8.59,8.66-14.53,17.51-14.53,7.75,0,11.69,3,10.91,8.52a12.55,12.55,0,0,0-11.43-7.36c-7.17,0-14.53,4.33-14.53,11.82,0,6.33,5.16,11.63,13.82,11.63,13.89,0,27.71-16.6,30.55-38.43-1.29-8.92-5.68-15.63-16.21-15.63-6.46,0-12.27,4.45-12.27,10.2,0,3.49,2.19,6.91,6.07,9.11-5.43-.58-8.4-3.49-8.4-8.4,0-5.55,5.68-12,14.86-12,18.66,0,19.83,19.25,19.83,26.48a57.77,57.77,0,0,1-1,10.79c5.42-10.86,13.75-20,20.34-27.13a28.51,28.51,0,0,1,2.91-3.23c1.42-1.36,3.42-2.33,4.59-1.87C172.13,79.59,162.64,102.91,162.64,115.69Z" transform="translate(-18.37 -8.87)" style="fill:#015249;stroke:#015249;stroke-miterlimit:10;stroke-width:0.5px"/><path d="M189.9,108.65a8.87,8.87,0,0,1-6.33,3.49c-1.43,3.81-4.27,6.72-6.85,6.72S172,117,172,113.18a9.35,9.35,0,0,1,3.56-7,6.51,6.51,0,0,1-.07-1.16c0-2.72,1.81-4.46,4.07-4.46,3,0,4.91,2.91,4.91,6.52a13,13,0,0,1-.58,3.88,7.68,7.68,0,0,0,5.81-3.62A.83.83,0,0,1,189.9,108.65Zm-7.43,3.49a7.26,7.26,0,0,1-5.17-2.32,10.19,10.19,0,0,0-1.55,5.16c0,1.68.58,2.59,1.49,2.59C179.11,117.57,181.24,115.31,182.47,112.14Zm-5.88-6.72c1.87-1.22,3.94-1.61,5.36-.58a14.72,14.72,0,0,0-4.07,3.94,6.3,6.3,0,0,0,4.85,2.26h.12a13.09,13.09,0,0,0,.59-3.94c0-3-1.49-5.42-3.88-5.42-1.68,0-3,1.23-3,3.36Z" transform="translate(-18.37 -8.87)" style="fill:#015249;stroke:#015249;stroke-miterlimit:10;stroke-width:0.5px"/><path d="M203.72,116.08c0-4.33,4.39-10.33,4.39-11.43,0-.19-.19-.26-.32-.26-2.33,0-8.08,8.2-9.95,14.86-1-.39-2.33-1-2.33-2.72,0-2.84,4.27-10.14,4.27-11.69,0-.32-.13-.45-.39-.45-1.62,0-8.85,8.33-9.69,14.92a2.92,2.92,0,0,1-2.52-2.78c0-3.81,4.33-9.81,3.75-12.07,1.74-.33,3.68.06,4.2,1.87,1.93-1.94,3.55-3,5.1-3a2.16,2.16,0,0,1,2.32,2.39,6.72,6.72,0,0,1-.13,1.23c1.88-1.94,4-3.62,5.88-3.62a3.13,3.13,0,0,1,3.17,3.43c0,2.52-4.52,7.94-4.52,11.11,0,.38.13.64.45.64,2.13,0,8.2-7.23,9.49-10.85a.78.78,0,0,1,.58,1.16c-1.35,3.1-7.23,10.85-10.46,10.85C204.81,119.63,203.72,118.15,203.72,116.08Z" transform="translate(-18.37 -8.87)" style="fill:#015249;stroke:#015249;stroke-miterlimit:10;stroke-width:0.5px"/><path d="M230.72,108.72c-3.88,6.2-8,10.14-11.37,10.14-2.71,0-4-1.81-4-4.52,0-4.91,4.4-10.21,9.24-10.21a1.84,1.84,0,0,1,2.07,1.94c0,1.87-3.17,5.23-6.4,5a12.53,12.53,0,0,0-1.48,5.11c0,.84.32,1.48,1.1,1.48,2.9,0,7-4.26,10.33-10.27A.89.89,0,0,1,230.72,108.72ZM220.77,110c2.58-.13,4.78-2.84,4.78-3.94,0-.39-.13-.52-.52-.52C223.87,105.55,222.13,107.62,220.77,110Z" transform="translate(-18.37 -8.87)" style="fill:#015249;stroke:#015249;stroke-miterlimit:10;stroke-width:0.5px"/><path d="M250.29,108.78c-2.59,4.33-7.75,10.85-11,10.85-1.68,0-3.1-1.22-3.1-3.55,0-3.68,4.14-9.62,4.14-10.79,0-.45-.26-.51-.59-.51-1.55,0-7.49,5.88-9.88,14.4-1,0-1.87-1-1.87-2.77,0-5.24,3.1-9.31,2.45-11.44,2.2-.71,4.53.58,4.53,2.26,1.87-2.13,3.81-3.48,5.49-3.48a3.35,3.35,0,0,1,3.35,3.42c0,2.91-4.26,7.56-4.26,10.46,0,.45.13.71.45.71,1.81,0,6.85-5.36,9.76-11A.9.9,0,0,1,250.29,108.78Z" transform="translate(-18.37 -8.87)" style="fill:#015249;stroke:#015249;stroke-miterlimit:10;stroke-width:0.5px"/><path d="M280.45,95.87c-1.61-1.75-4.65-2.2-7-2.2-4.52,0-9.3,1.23-13.56,2.13-2.72,6.52-9.3,16.73-9.3,21.83,0,.58.25.91.71.91,2.84,0,8-7.82,9.56-10.79.38.19.77.58.51,1.1-1.48,3-6.84,10.78-10.46,10.78-1.55,0-3.36-1-3.36-4.19,0-4.14,4.52-12.08,7.56-18.73a22.36,22.36,0,0,1-2.71.19c-6,0-9.63-1.94-9.63-5.17a5.72,5.72,0,0,1,4.33-5.68,6.42,6.42,0,0,0-1.87,4.26c0,3.17,3.42,4.78,9,4.78a14.55,14.55,0,0,0,1.55-.06,19.71,19.71,0,0,0,1.94-6.85c2-.32,3.29.84,3.29,3.42a7.81,7.81,0,0,1-.58,2.65c4-.71,8.72-1.68,13-1.68C277.22,92.57,279.87,94,280.45,95.87Z" transform="translate(-18.37 -8.87)" style="fill:#015249;stroke:#015249;stroke-miterlimit:10;stroke-width:0.5px"/><path d="M328.44,108.59c-6.33,9.82-13.95,15.37-22.73,15.37-5.88,0-9.3-4.2-9.69-10.66a53.48,53.48,0,0,1-16.08,2.78c-10.79,0-17.77-4.39-17.77-10.79,0-7,6.85-12.46,16.22-12.46,10.59,0,15.37,6.91,13.43,11.63-3.29-8-9.49-10.4-14.21-10.4-6.78,0-11.5,4.39-11.5,10.14,0,7.75,7,10.78,13.83,10.78a52.65,52.65,0,0,0,16-2.77v-.33c0-17.95,21-40.3,34.88-40.3A5.77,5.77,0,0,1,337,77.46c0,10.91-16.79,26.16-35.46,33.78-.07.71-.07,1.42-.07,2.13,0,4.46,2,8.46,6.92,8.46,6.26,0,14.4-5.62,19.76-14.34A.69.69,0,0,1,328.44,108.59Zm-26.8,1.49c18.28-7.63,34.23-22.61,34.23-32.62,0-2.84-1.81-4.78-4.26-4.78C322.63,72.68,303.83,92.7,301.64,110.08Z" transform="translate(-18.37 -8.87)" style="fill:#015249;stroke:#015249;stroke-miterlimit:10;stroke-width:0.5px"/><path d="M343.3,108.65c-2.39,4.65-8.91,11-12.66,11a2.71,2.71,0,0,1-2.84-3c0-2.19,2.13-5.81,4-8a3,3,0,0,1-.84.13,3,3,0,0,1-3.23-3.23c0-1.42.91-2.9,2-2.9a1.74,1.74,0,0,1,1.68,1.81,7.3,7.3,0,0,1-1,3.16,1.29,1.29,0,0,0,.51.07c1.55,0,3.17-1.1,4.59-2.85,1.23.71,1.94,1.49,1.94,2.52,0,2.72-6.91,7.62-6.91,10.79,0,.26.06.39.32.39,2.65,0,9.49-6.14,12-11.05A.84.84,0,0,1,343.3,108.65Zm-14.53-3.1a1.89,1.89,0,0,0,.71,1.68,8.79,8.79,0,0,0,.77-2.77c0-.33-.13-.71-.51-.71S328.77,104.58,328.77,105.55Z" transform="translate(-18.37 -8.87)" style="fill:#015249;stroke:#015249;stroke-miterlimit:10;stroke-width:0.5px"/><path d="M356.28,108.72c-3.87,6.2-8,10.14-11.37,10.14-2.71,0-4-1.81-4-4.52,0-4.91,4.39-10.21,9.24-10.21a1.83,1.83,0,0,1,2.06,1.94c0,1.87-3.16,5.23-6.39,5a12.4,12.4,0,0,0-1.49,5.11c0,.84.33,1.48,1.1,1.48,2.91,0,7-4.26,10.33-10.27A.89.89,0,0,1,356.28,108.72ZM346.33,110c2.59-.13,4.78-2.84,4.78-3.94,0-.39-.12-.52-.51-.52C349.43,105.55,347.69,107.62,346.33,110Z" transform="translate(-18.37 -8.87)" style="fill:#015249;stroke:#015249;stroke-miterlimit:10;stroke-width:0.5px"/><path d="M373.72,108.85c-2.65,6.2-7,10.78-9.43,10.78-1.49,0-2.65-1.09-2.65-3.35a12.27,12.27,0,0,1,.26-1.94c-1.55,2.39-3.55,4.52-5.62,4.52a3.3,3.3,0,0,1-3.16-3.42c0-6.59,8.84-14.47,13.63-10.4-6.27-.78-9.76,8.72-9.76,11.11,0,.64.32.77.52.77,2.13,0,6.52-6.91,6.07-10,1.49.26,3.62,1.1,3.62,3,0,2.78-2.78,6.4-2.78,8,0,.32.19.51.39.51,1.74,0,6-4.65,8.33-10.46A.63.63,0,0,1,373.72,108.85Z" transform="translate(-18.37 -8.87)" style="fill:#015249;stroke:#015249;stroke-miterlimit:10;stroke-width:0.5px"/><path d="M404.21,95.87c-1.62-1.75-4.65-2.2-7-2.2-4.52,0-9.3,1.23-13.57,2.13-2.71,6.52-9.3,16.73-9.3,21.83,0,.58.26.91.71.91,2.84,0,8-7.82,9.56-10.79.39.19.78.58.52,1.1-1.49,3-6.85,10.78-10.47,10.78-1.54,0-3.35-1-3.35-4.19,0-4.14,4.52-12.08,7.55-18.73a22.23,22.23,0,0,1-2.71.19c-6,0-9.62-1.94-9.62-5.17a5.71,5.71,0,0,1,4.32-5.68,6.46,6.46,0,0,0-1.87,4.26c0,3.17,3.42,4.78,9,4.78a14.46,14.46,0,0,0,1.55-.06,19.5,19.5,0,0,0,1.94-6.85c2-.32,3.3.84,3.3,3.42a7.86,7.86,0,0,1-.59,2.65c4-.71,8.72-1.68,13-1.68C401,92.57,403.63,94,404.21,95.87Z" transform="translate(-18.37 -8.87)" style="fill:#015249;stroke:#015249;stroke-miterlimit:10;stroke-width:0.5px"/><path d="M382.83,116.15c0-4.59,3.16-8.92,3.16-11.69,1.88,0,3.88,1.09,3.88,2.77,0,2.65-3.81,7.82-3.81,10a.47.47,0,0,0,.51.52c1.55,0,6-5.36,8.66-10.14a.81.81,0,0,1,.39,1.1c-1.81,3.55-7,10.91-10.4,10.91C383.73,119.63,382.83,118.34,382.83,116.15Zm3.55-16.09a2.09,2.09,0,0,1,2.26-2.13c.84,0,1.87.26,2.84.2,0,1.81-1.1,3.94-3,3.94A1.92,1.92,0,0,1,386.38,100.06Z" transform="translate(-18.37 -8.87)" style="fill:#015249;stroke:#015249;stroke-miterlimit:10;stroke-width:0.5px"/><path d="M411.7,108.65a8.87,8.87,0,0,1-6.33,3.49c-1.42,3.81-4.26,6.72-6.85,6.72s-4.71-1.87-4.71-5.68a9.37,9.37,0,0,1,3.55-7,7.58,7.58,0,0,1-.06-1.16c0-2.72,1.8-4.46,4.07-4.46,3,0,4.9,2.91,4.9,6.52a13,13,0,0,1-.58,3.88,7.68,7.68,0,0,0,5.82-3.62A.82.82,0,0,1,411.7,108.65Zm-7.43,3.49a7.29,7.29,0,0,1-5.17-2.32,10.29,10.29,0,0,0-1.55,5.16c0,1.68.59,2.59,1.49,2.59C400.91,117.57,403,115.31,404.27,112.14Zm-5.88-6.72c1.88-1.22,3.94-1.61,5.36-.58a14.83,14.83,0,0,0-4.06,3.94,6.29,6.29,0,0,0,4.84,2.26h.13a13.09,13.09,0,0,0,.58-3.94c0-3-1.49-5.42-3.87-5.42-1.68,0-3,1.23-3,3.36Z" transform="translate(-18.37 -8.87)" style="fill:#015249;stroke:#015249;stroke-miterlimit:10;stroke-width:0.5px"/><path d="M431.46,108.78c-2.58,4.33-7.75,10.85-11,10.85-1.68,0-3.1-1.22-3.1-3.55,0-3.68,4.13-9.62,4.13-10.79,0-.45-.26-.51-.58-.51-1.55,0-7.49,5.88-9.88,14.4-1,0-1.87-1-1.87-2.77,0-5.24,3.1-9.31,2.45-11.44,2.2-.71,4.52.58,4.52,2.26,1.87-2.13,3.81-3.48,5.49-3.48a3.35,3.35,0,0,1,3.36,3.42c0,2.91-4.26,7.56-4.26,10.46,0,.45.13.71.45.71,1.81,0,6.85-5.36,9.75-11A.89.89,0,0,1,431.46,108.78Z" transform="translate(-18.37 -8.87)" style="fill:#015249;stroke:#015249;stroke-miterlimit:10;stroke-width:0.5px"/><path d="M90.12,15.39c5.52-3.25,11.77-3.3,17.83-3.86,4.69-.43,9.44-.08,15.19-.08L107.53,13.8c1.46,1.45,2.8,1,4,.95a110.13,110.13,0,0,1,20.62.8c7.06.94,13.24,4.18,19.55,7.39C166,30.19,177.9,39.76,185.63,54c.2.36.33.76.7,1.67-5.67-5.93-10.88-11.57-16.78-16.5-6.62-5.53-13.67-10.46-21.66-13.7-10.52-4.26-21.62-5.95-32.93-6.25-5.32-.14-5.38,5.07-7.56,8-3.14,4.13-5.26,9.24-7.16,13.81-2.37,5.68-7.56,10.28-7.76,17.38,6.91-.36,13.45-.72,20-1,6.33-.3,12.66-2.19,19,.07a7.44,7.44,0,0,0,4.13-.23c2.88-.7,5-1.09,8.4,1.23,4.1,2.79,10.57,4.9,16.4,1.1,2.25-1.46,4.86,0,7.28.32,4.12.55,8.32-.72,12.48,1.19l-26.89,3.19c-6.19.74-12.3,0-18.46-.61s-12.37.54-18.59-1.2c-3.89-1.09-8.21-1.39-12.25.86-1.8,1-3.65-1-5.63-1.11-2.77-.14-6.45-2.45-8-.91-3.16,3.09-6.89,6-8.51,10.52-1.75,4.85-4.6,9.08-7.41,13.38-3,4.58-3.74,10.16-5.53,15.28-.41,1.16.72,2.3,1.41,3.39a154.44,154.44,0,0,1,9.07,16.56c2.5,5.33,6.6,9.77,8.88,15.25.85,2,2.61,1.25,4,1.21,9.26-.23,18.51-.46,27.75-.88,2.62-.12,5,.78,7.43,1.26,3.29.63,5.29.16,6.34-3.29.64-2.1,2.33-3.38,4.83-3.7,1.7,4.67-1.15,8.07-3,11.71-5.9,11.74-15,21.6-20,33.87-1,2.43-3.47,4-3.81,6.89a5.84,5.84,0,0,0,5.38.47c3.48-1.25,7.12-1.15,10.65-1.76,3.75-.64,7.12-1.18,8.73-5.35a4.53,4.53,0,0,1,4-2.72c10.88.28,19-6.17,27.52-11.35,2.54-1.54,3.42-5.16,6.26-6.46,6.34-2.92,7.56-10.32,12.82-14.23,2.37-1.76,2.91-5.06,3.93-7.82.62-1.7.89-3.53,2.35-5.29-.93,12.94-7.24,23.11-15,32.33-17.12,20.29-39,30.76-65.74,30.58-12-.07-24.39,1.06-35.44-5-9.58-5.25-20.61-8.21-28.3-16.53-7.09-7.67-15.32-14.47-19.61-24.42a8.11,8.11,0,0,1-1-3.61c.16-3.86-1.52-7.43-2.88-10.71-2.11-5.09-2.53-10.26-3-15.5-.19-2-.27-3.8-1.84-5.36-3-3-1.43-7.2-1.9-10.69a57.79,57.79,0,0,1,3-26.17c.62-1.86,1.26-3.74,3.43-4.37,1.27.71.54,2.17,1.29,3,.57.62,1.26,1.35,2.14,1,.54-.24,1.29-1.11,1.2-1.51-1.3-5.57,3.67-8.43,5.52-12.59,1.43-3.21,2.23-6.86,5.66-9.21,4.73-3.23,8.27-8,12.76-11.49C68.44,26.63,84.43,18.05,103,15.13c.35-.06.64-.43,1.32-.91-5.14-1.41-9.56,1.33-14.19,1.15Zm39.71,123.87c-27,2.11-54,1.58-81.05,1.18,12.25-.15,24.27-2.27,37.57-2.79-7-11.84-13.91-22.52-19.81-33.71-5.78-11-13.66-20.7-18.66-32,8.32,5.77,11,15.58,17.37,23.44A60.57,60.57,0,0,1,73.14,77c3.6-5.34,6.3-11.18,10-16.49,2.35-3.4,5.14-6.49,7.2-10.1C94.53,43,98.75,35.58,104,28.79c2-2.66,3.46-5.82,5.52-9.37-2.77.28-4.88.31-6.91.72C93.32,22,85,25.91,76.47,30.1c-8.8,4.33-15.76,10.44-21.9,17.24C48.18,54.41,43.42,63.11,39.65,72c-11.38,26.82-9.71,52.24,9.07,75.51.69.86,1.83,1.45,2.28,2.4,3.49,7.4,11,11,16,17.1,5.38,6.63,13.57,9.38,21.45,12.47,5.28,2.07,10.65,2.29,16,3.21,1.29.23,2-.42,2.68-1.53,2.13-3.62,4.72-7,6.51-10.78,4-8.52,9.19-16.34,14.11-24.32C128.85,144.24,130.17,142.25,129.83,139.26Z" transform="translate(-18.37 -8.87)" style="fill:url(#linear-gradient)"/><path d="M126.71,9.9a7,7,0,0,1-5.64-.74A6.9,6.9,0,0,1,126.71,9.9Z" transform="translate(-18.37 -8.87)"/><path d="M90.11,15.37c-.18,1-.81.78-1.51.55.34-.76.92-.69,1.52-.53Z" transform="translate(-18.37 -8.87)"/><path d="M23.9,132.71l.34-1c-.33.05-.88,0-.94.16-.2.58,0,1,.73.82Z" transform="translate(-18.37 -8.87)"/><path d="M24,132.74l-.61.23c.13.13.3.41.4.38a1,1,0,0,0,.53-.4c.34-.45,0-.89-.12-.34,0,0-.23.06-.34.1Z" transform="translate(-18.37 -8.87)"/><path d="M213.4,138.25h-.6c0-.57.06-1,.06-1.38a3,3,0,0,0-.65-2.18,2.27,2.27,0,0,0-1.63-.61,4.56,4.56,0,0,0-2.74,1.07,8.28,8.28,0,0,0-2.43,3.33,11.22,11.22,0,0,0-1,4.66,5.77,5.77,0,0,0,.94,3.55,2.9,2.9,0,0,0,2.38,1.23c1.29,0,2.48-.78,3.55-2.33a.46.46,0,0,1,.35-.23.33.33,0,0,1,.24.1.26.26,0,0,1,.1.21c0,.2-.25.59-.74,1.18a6.12,6.12,0,0,1-1.85,1.45,4.74,4.74,0,0,1-2.21.58,4.59,4.59,0,0,1-4.16-2.62,6.78,6.78,0,0,1-.62-3,10.2,10.2,0,0,1,1.27-4.83,10,10,0,0,1,3.17-3.71,6.6,6.6,0,0,1,3.72-1.31,5.7,5.7,0,0,1,1.3.15c.18,0,.94.3,2.28.76A14.12,14.12,0,0,0,213.4,138.25Z" transform="translate(-18.37 -8.87)" style="fill:#015249;stroke:#015249;stroke-miterlimit:10"/><path d="M219.89,137.4a2.28,2.28,0,0,1,1.81.86,3.67,3.67,0,0,1,.72,2.41,6.48,6.48,0,0,1-1.73,4.41A4.92,4.92,0,0,1,217,147a2.49,2.49,0,0,1-1.91-.77,3,3,0,0,1-.72-2.12,7.47,7.47,0,0,1,1.33-4.29A4.9,4.9,0,0,1,219.89,137.4Zm-.94.83c-.63,0-1.24.45-1.82,1.35a6.68,6.68,0,0,0-.88,3.71,4.12,4.12,0,0,0,.54,2.27,1.21,1.21,0,0,0,1.06.61,2.11,2.11,0,0,0,1.7-1.15,6.65,6.65,0,0,0,1-3.71,4.62,4.62,0,0,0-.45-2.37A1.31,1.31,0,0,0,219,138.23Z" transform="translate(-18.37 -8.87)" style="fill:#015249;stroke:#015249;stroke-miterlimit:10"/><path d="M224.28,140l-.38-.39a12,12,0,0,1,2.26-1.8,3.15,3.15,0,0,1,1.44-.44.58.58,0,0,1,.37.1.27.27,0,0,1,.13.23,1.9,1.9,0,0,1-.06.35l-.49,2.23a13.83,13.83,0,0,1,2.83-2.34,3.08,3.08,0,0,1,1.49-.56.85.85,0,0,1,.67.27,1.15,1.15,0,0,1,.25.8,4,4,0,0,1-.1.78c-.12.48-.43,1.52-.93,3.13a13.27,13.27,0,0,0-.71,3,.72.72,0,0,0,.07.34.22.22,0,0,0,.19.12,2,2,0,0,0,1-.62c.32-.3.65-.57,1-.82l.28.39a10,10,0,0,1-2.12,1.81,2.25,2.25,0,0,1-1.15.44.77.77,0,0,1-.65-.3,1.61,1.61,0,0,1-.23-1,24.5,24.5,0,0,1,1.22-4.91,10.37,10.37,0,0,0,.38-1.63c0-.23-.14-.34-.41-.34a2.21,2.21,0,0,0-1.14.47,6.88,6.88,0,0,0-1.74,1.61,5.44,5.44,0,0,0-.74,1.91l-.9,3.87h-1.65q.47-1.67.81-3.18l1-4.21a2.73,2.73,0,0,0,0-.37c0-.2-.07-.3-.22-.3a1.06,1.06,0,0,0-.51.23A6.73,6.73,0,0,0,224.28,140Z" transform="translate(-18.37 -8.87)" style="fill:#015249;stroke:#015249;stroke-miterlimit:10"/><path d="M235.19,140l-.38-.39a11.65,11.65,0,0,1,2.26-1.8,3.15,3.15,0,0,1,1.44-.44.58.58,0,0,1,.37.1.29.29,0,0,1,.13.23,1.9,1.9,0,0,1-.06.35l-.49,2.23a13.83,13.83,0,0,1,2.83-2.34,3.08,3.08,0,0,1,1.49-.56.85.85,0,0,1,.67.27,1.2,1.2,0,0,1,.25.8,4,4,0,0,1-.1.78c-.12.48-.43,1.52-.93,3.13a13.27,13.27,0,0,0-.71,3,.72.72,0,0,0,.07.34.21.21,0,0,0,.19.12,2,2,0,0,0,1-.62c.32-.3.65-.57,1-.82l.28.39a10,10,0,0,1-2.12,1.81,2.25,2.25,0,0,1-1.15.44.77.77,0,0,1-.65-.3,1.6,1.6,0,0,1-.24-1,24.08,24.08,0,0,1,1.23-4.91,11.84,11.84,0,0,0,.38-1.63c0-.23-.14-.34-.41-.34a2.15,2.15,0,0,0-1.14.47,6.88,6.88,0,0,0-1.74,1.61,5.25,5.25,0,0,0-.74,1.91l-.9,3.87h-1.65q.47-1.67.81-3.18l1-4.21a2.73,2.73,0,0,0,0-.37c0-.2-.07-.3-.22-.3a1.06,1.06,0,0,0-.51.23A6.73,6.73,0,0,0,235.19,140Z" transform="translate(-18.37 -8.87)" style="fill:#015249;stroke:#015249;stroke-miterlimit:10"/><path d="M251.57,143.93l.36.49q-2.72,2.58-4.65,2.58a1.43,1.43,0,0,1-1.2-.53,2.75,2.75,0,0,1-.42-1.71,8.91,8.91,0,0,1,1.44-4.71q1.62-2.67,3.87-2.67a1.7,1.7,0,0,1,1.2.39,1.4,1.4,0,0,1,.41,1.08,2.44,2.44,0,0,1-.49,1.42,5.91,5.91,0,0,1-1.79,1.45c-.43.24-1.34.68-2.74,1.32a6.51,6.51,0,0,0-.1,1.14,1.75,1.75,0,0,0,.25,1.09.85.85,0,0,0,.72.31,2.37,2.37,0,0,0,1-.25A14.35,14.35,0,0,0,251.57,143.93Zm-3.88-1.6a8.73,8.73,0,0,0,2.68-1.72,1.91,1.91,0,0,0,.61-1.27,1.14,1.14,0,0,0-.25-.76.82.82,0,0,0-.65-.28,1.26,1.26,0,0,0-.8.31,3,3,0,0,0-.87,1.24A11.13,11.13,0,0,0,247.69,142.33Z" transform="translate(-18.37 -8.87)" style="fill:#015249;stroke:#015249;stroke-miterlimit:10"/><path d="M260,144.31l.23.64q-2.64,2.07-4.45,2.07a1.54,1.54,0,0,1-1.4-.68,3.12,3.12,0,0,1-.44-1.74,8,8,0,0,1,.93-3.6,7.84,7.84,0,0,1,2.26-2.84,3.83,3.83,0,0,1,2.34-.76,2.1,2.1,0,0,1,1.25.31.92.92,0,0,1,.42.75.74.74,0,0,1-.23.56.81.81,0,0,1-.62.22,2.1,2.1,0,0,1-1-.36,2.17,2.17,0,0,0-1.05-.37,1.57,1.57,0,0,0-1.08.49,4.79,4.79,0,0,0-1,1.91,8.79,8.79,0,0,0-.49,2.84,2.77,2.77,0,0,0,.41,1.62,1,1,0,0,0,.85.45A5.27,5.27,0,0,0,260,144.31Z" transform="translate(-18.37 -8.87)" style="fill:#015249;stroke:#015249;stroke-miterlimit:10"/><path d="M265.23,135.69,267,135l-.8,3.1h2.3l-.18.79H266l-1,3.71a10.31,10.31,0,0,0-.46,2.32.58.58,0,0,0,.13.43.44.44,0,0,0,.34.14,2.57,2.57,0,0,0,1.06-.41,15.51,15.51,0,0,0,1.77-1.23l.42.51a28.34,28.34,0,0,1-3.25,2.23,3,3,0,0,1-1.31.41.78.78,0,0,1-.65-.3,1.55,1.55,0,0,1-.24-1,11,11,0,0,1,.42-2.44l1.13-4.4h-1.79l.19-.79h1.8Z" transform="translate(-18.37 -8.87)" style="fill:#015249;stroke:#015249;stroke-miterlimit:10"/><path d="M285.47,146.06l-.23.65a4.77,4.77,0,0,1-1.18.18c-.34,0-.8,0-1.37-.09a12.31,12.31,0,0,0-1.29-.09,19.17,19.17,0,0,0-2.07.16l.19-.57a2.72,2.72,0,0,0,1.3-.57,10.73,10.73,0,0,0,.89-2.65,16.08,16.08,0,0,0,.62-3.09,8.61,8.61,0,0,0-.58-3,7.54,7.54,0,0,0-1.44-2.53,9.93,9.93,0,0,0-2.33,1.12,4.23,4.23,0,0,0-1.13,1.29,2.89,2.89,0,0,0-.42,1.34,1.46,1.46,0,0,0,.51,1.06,1.16,1.16,0,0,1,.43.74.68.68,0,0,1-.17.47.56.56,0,0,1-.43.19.89.89,0,0,1-.76-.44,2.52,2.52,0,0,1-.43-1.46,4.27,4.27,0,0,1,.69-2.32,5.58,5.58,0,0,1,1.92-1.81,10.68,10.68,0,0,1,2.37-.92c.4-.12.77-.24,1.09-.37a9,9,0,0,1,1.51,2.63,15.1,15.1,0,0,1,.78,3.75,20.78,20.78,0,0,1,3.92-6.08c1.24-1.17,2.25-1.76,3-1.76a.88.88,0,0,1,.6.21.7.7,0,0,1,.23.52.61.61,0,0,1-.27.52,2.13,2.13,0,0,1-1.06.26,2.62,2.62,0,0,0-1.2.31,8.86,8.86,0,0,0-1.95,1.88A22.07,22.07,0,0,0,285,139a20,20,0,0,0-1.67,4.3,20.79,20.79,0,0,0-.61,2.9,6.06,6.06,0,0,0,1,.09A7.29,7.29,0,0,0,285.47,146.06Z" transform="translate(-18.37 -8.87)" style="fill:#015249;stroke:#015249;stroke-miterlimit:10"/><path d="M294,137.4a2.28,2.28,0,0,1,1.81.86,3.67,3.67,0,0,1,.72,2.41,6.48,6.48,0,0,1-1.73,4.41,4.92,4.92,0,0,1-3.66,1.95,2.49,2.49,0,0,1-1.91-.77,3,3,0,0,1-.72-2.12,7.47,7.47,0,0,1,1.33-4.29A4.9,4.9,0,0,1,294,137.4Zm-.94.83c-.63,0-1.23.45-1.82,1.35a6.68,6.68,0,0,0-.88,3.71,4.12,4.12,0,0,0,.54,2.27,1.21,1.21,0,0,0,1.06.61,2.11,2.11,0,0,0,1.7-1.15,6.65,6.65,0,0,0,1-3.71,4.62,4.62,0,0,0-.45-2.37A1.3,1.3,0,0,0,293.05,138.23Z" transform="translate(-18.37 -8.87)" style="fill:#015249;stroke:#015249;stroke-miterlimit:10"/><path d="M305.53,137.69h1.57l-1,3.87a30.92,30.92,0,0,0-.92,3.84.51.51,0,0,0,.1.32.31.31,0,0,0,.22.11.87.87,0,0,0,.45-.17,14.7,14.7,0,0,0,1.38-1.28l.37.41c-1.49,1.54-2.58,2.31-3.28,2.31a.77.77,0,0,1-.6-.27,1.08,1.08,0,0,1-.25-.77,6.76,6.76,0,0,1,.24-1.54,9.88,9.88,0,0,1-2.44,2,3.42,3.42,0,0,1-1.67.57.77.77,0,0,1-.61-.26,1.26,1.26,0,0,1-.22-.81,4.47,4.47,0,0,1,.1-.93c.1-.46.34-1.4.73-2.8a19.27,19.27,0,0,0,.74-3.21c0-.21-.07-.31-.22-.31a1.17,1.17,0,0,0-.54.21,7.48,7.48,0,0,0-1.17,1l-.49-.39a13.5,13.5,0,0,1,2.26-1.75,3,3,0,0,1,1.26-.41.53.53,0,0,1,.43.19.93.93,0,0,1,.17.61,21.48,21.48,0,0,1-.8,3.76,25.51,25.51,0,0,0-.71,3.07.59.59,0,0,0,.15.4.44.44,0,0,0,.33.16,3.24,3.24,0,0,0,1.76-1,4.81,4.81,0,0,0,1.49-2.33Z" transform="translate(-18.37 -8.87)" style="fill:#015249;stroke:#015249;stroke-miterlimit:10"/><path d="M311,146.71h-1.65l.78-3c.37-1.46.7-2.85,1-4.16a3.84,3.84,0,0,0,.1-.61c0-.18-.08-.26-.24-.26a1.1,1.1,0,0,0-.51.22,10.52,10.52,0,0,0-1.24,1.13l-.34-.39A8.21,8.21,0,0,1,311,138a3.81,3.81,0,0,1,1.62-.57.48.48,0,0,1,.31.09.29.29,0,0,1,.12.24,5,5,0,0,1-.15.77l-.48,2a14,14,0,0,1,2.53-3,1.92,1.92,0,0,1,1.13-.6.78.78,0,0,1,.56.21.68.68,0,0,1,.22.51.7.7,0,0,1-.22.51,3.47,3.47,0,0,1-1.07.49,4.92,4.92,0,0,0-1.34.67,7.61,7.61,0,0,0-2,2.57,21,21,0,0,0-.75,2.75Z" transform="translate(-18.37 -8.87)" style="fill:#015249;stroke:#015249;stroke-miterlimit:10"/><path d="M331.16,137.72h-.58c.08-.77.12-1.36.12-1.76a1.93,1.93,0,0,0-.45-1.35,1.66,1.66,0,0,0-1.25-.49,3,3,0,0,0-2.12.88,2.72,2.72,0,0,0-.9,2,2.3,2.3,0,0,0,.24,1.06,6.79,6.79,0,0,0,1.1,1.34,12.36,12.36,0,0,1,2.05,2.39,3.45,3.45,0,0,1,.48,1.68,4.18,4.18,0,0,1-.73,2.33,5.58,5.58,0,0,1-2.18,1.85,6.62,6.62,0,0,1-3,.72,4.26,4.26,0,0,1-2.66-.82,2.23,2.23,0,0,1-1.08-1.73,1.16,1.16,0,0,1,.29-.8.82.82,0,0,1,.64-.33.76.76,0,0,1,.62.3,2.06,2.06,0,0,1,.31.8,3,3,0,0,0,.44,1.09,1.89,1.89,0,0,0,.7.56,2.27,2.27,0,0,0,1,.21,4,4,0,0,0,2.77-1.07,3.13,3.13,0,0,0,1.18-2.36,2.67,2.67,0,0,0-.15-.88,4,4,0,0,0-.54-1,17.69,17.69,0,0,0-1.23-1.33,12.35,12.35,0,0,1-1.19-1.27,3.94,3.94,0,0,1-.51-1,3.27,3.27,0,0,1-.16-1,3.66,3.66,0,0,1,.67-2,4.93,4.93,0,0,1,4.21-2.22,8.49,8.49,0,0,1,1.69.21c.39.07.72.13,1,.16a13,13,0,0,0-.38,1.36C331.44,135.61,331.31,136.46,331.16,137.72Z" transform="translate(-18.37 -8.87)" style="fill:#015249;stroke:#015249;stroke-miterlimit:10"/><path d="M338.09,137.4a2.28,2.28,0,0,1,1.81.86,3.67,3.67,0,0,1,.72,2.41,6.48,6.48,0,0,1-1.73,4.41,4.92,4.92,0,0,1-3.66,1.95,2.49,2.49,0,0,1-1.91-.77,3,3,0,0,1-.72-2.12,7.47,7.47,0,0,1,1.33-4.29A4.9,4.9,0,0,1,338.09,137.4Zm-.94.83c-.63,0-1.23.45-1.82,1.35a6.68,6.68,0,0,0-.88,3.71,4.12,4.12,0,0,0,.54,2.27,1.21,1.21,0,0,0,1.06.61,2.11,2.11,0,0,0,1.7-1.15,6.65,6.65,0,0,0,1-3.71,4.62,4.62,0,0,0-.45-2.37A1.31,1.31,0,0,0,337.15,138.23Z" transform="translate(-18.37 -8.87)" style="fill:#015249;stroke:#015249;stroke-miterlimit:10"/><path d="M349.63,137.69h1.57l-1,3.87a30.92,30.92,0,0,0-.92,3.84.51.51,0,0,0,.1.32.31.31,0,0,0,.22.11.87.87,0,0,0,.45-.17,14.7,14.7,0,0,0,1.38-1.28l.37.41c-1.49,1.54-2.58,2.31-3.28,2.31a.77.77,0,0,1-.6-.27,1.08,1.08,0,0,1-.25-.77,6.76,6.76,0,0,1,.24-1.54,9.88,9.88,0,0,1-2.44,2,3.42,3.42,0,0,1-1.67.57.77.77,0,0,1-.61-.26,1.21,1.21,0,0,1-.22-.81,4.47,4.47,0,0,1,.1-.93c.1-.46.34-1.4.73-2.8a20.48,20.48,0,0,0,.74-3.21c0-.21-.07-.31-.22-.31a1.17,1.17,0,0,0-.54.21,7.89,7.89,0,0,0-1.18,1l-.48-.39a13.5,13.5,0,0,1,2.26-1.75,3,3,0,0,1,1.26-.41.53.53,0,0,1,.43.19.93.93,0,0,1,.17.61,21.48,21.48,0,0,1-.8,3.76,25.51,25.51,0,0,0-.71,3.07.59.59,0,0,0,.15.4.44.44,0,0,0,.33.16,3.24,3.24,0,0,0,1.76-1,4.81,4.81,0,0,0,1.49-2.33Z" transform="translate(-18.37 -8.87)" style="fill:#015249;stroke:#015249;stroke-miterlimit:10"/><path d="M357.66,144l.38.4a11.17,11.17,0,0,1-2.05,1.78,3.77,3.77,0,0,1-1.94.8.7.7,0,0,1-.57-.26,1.09,1.09,0,0,1-.22-.71,20,20,0,0,1,.69-3.68l1.19-4.86a20.42,20.42,0,0,1,1.1-3.53,5,5,0,0,1,1.94-2.11,5.09,5.09,0,0,1,2.65-.75,1.16,1.16,0,0,1,.75.23.69.69,0,0,1,.27.55.75.75,0,0,1-.27.59,1.16,1.16,0,0,1-.77.22,5.09,5.09,0,0,1-.94-.11,5.78,5.78,0,0,0-1-.08,1.13,1.13,0,0,0-.69.18,2.52,2.52,0,0,0-.58,1.12c-.17.56-.45,1.68-.84,3.35l-1.1,4.64c-.55,2.32-.82,3.54-.82,3.64s.08.35.25.35a1.55,1.55,0,0,0,.71-.28A11.37,11.37,0,0,0,357.66,144Z" transform="translate(-18.37 -8.87)" style="fill:#015249;stroke:#015249;stroke-miterlimit:10"/><path d="M363.83,137.4a2.65,2.65,0,0,1,1.52.38,1.09,1.09,0,0,1,.54.88.71.71,0,0,1-.23.52.74.74,0,0,1-.55.22.69.69,0,0,1-.36-.09,2,2,0,0,1-.45-.47,1.45,1.45,0,0,0-1.07-.72,1.11,1.11,0,0,0-.8.35,1.15,1.15,0,0,0-.35.87,1.81,1.81,0,0,0,.22.87,7.4,7.4,0,0,0,1.12,1.38,3.76,3.76,0,0,1,1.23,2.48,2.64,2.64,0,0,1-1,2.05,3.71,3.71,0,0,1-2.57.88,3,3,0,0,1-2-.54,1.63,1.63,0,0,1-.64-1.32.89.89,0,0,1,.24-.64.79.79,0,0,1,.6-.26.74.74,0,0,1,.53.21.62.62,0,0,1,.22.48c0,.07,0,.17,0,.29a2.18,2.18,0,0,0,0,.24.76.76,0,0,0,.31.62,1.22,1.22,0,0,0,.82.26,2.52,2.52,0,0,0,1.05-.21,1.51,1.51,0,0,0,.7-.62,1.44,1.44,0,0,0,0-1.62,11.22,11.22,0,0,0-1.07-1.31,3.79,3.79,0,0,1-1.15-2.47,2.53,2.53,0,0,1,.87-1.9A3.15,3.15,0,0,1,363.83,137.4Z" transform="translate(-18.37 -8.87)" style="fill:#015249;stroke:#015249;stroke-miterlimit:10"/></svg>